<?xml version="1.0" encoding="UTF-8" standalone="no"?>
<svg
   xmlns:osb="http://www.openswatchbook.org/uri/2009/osb"
   xmlns:dc="http://purl.org/dc/elements/1.1/"
   xmlns:cc="http://creativecommons.org/ns#"
   xmlns:rdf="http://www.w3.org/1999/02/22-rdf-syntax-ns#"
   xmlns:svg="http://www.w3.org/2000/svg"
   xmlns="http://www.w3.org/2000/svg"
   xmlns:sodipodi="http://sodipodi.sourceforge.net/DTD/sodipodi-0.dtd"
   xmlns:inkscape="http://www.inkscape.org/namespaces/inkscape"
   width="210mm"
   height="297mm"
   viewBox="0 0 210 297"
   version="1.1"
   id="svg2322"
   inkscape:version="1.0.2-2 (e86c870879, 2021-01-15)"
   sodipodi:docname="desenhando-1.png.svg">
  <defs
     id="defs2316">
    <linearGradient
       id="linearGradient3007"
       osb:paint="solid">
      <stop
         style="stop-color:#0043ff;stop-opacity:1;"
         offset="0"
         id="stop3005" />
    </linearGradient>
    <inkscape:path-effect
       effect="powerstroke"
       id="path-effect2995"
       is_visible="true"
       lpeversion="1"
       offset_points="0,20.8918"
       sort_points="true"
       interpolator_type="CubicBezierJohan"
       interpolator_beta="0.2"
       start_linecap_type="zerowidth"
       linejoin_type="extrp_arc"
       miter_limit="4"
       scale_width="1"
       end_linecap_type="zerowidth" />
    <inkscape:path-effect
       effect="powerstroke"
       id="path-effect2991"
       is_visible="true"
       lpeversion="1"
       offset_points="0,20.8918"
       sort_points="true"
       interpolator_type="CubicBezierJohan"
       interpolator_beta="0.2"
       start_linecap_type="zerowidth"
       linejoin_type="extrp_arc"
       miter_limit="4"
       scale_width="1"
       end_linecap_type="zerowidth" />
    <inkscape:path-effect
       effect="powerstroke"
       id="path-effect2987"
       is_visible="true"
       lpeversion="1"
       offset_points="0,15.405424"
       sort_points="true"
       interpolator_type="CubicBezierJohan"
       interpolator_beta="0.2"
       start_linecap_type="zerowidth"
       linejoin_type="extrp_arc"
       miter_limit="4"
       scale_width="1"
       end_linecap_type="zerowidth" />
    <inkscape:path-effect
       effect="powerstroke"
       id="path-effect2983"
       is_visible="true"
       lpeversion="1"
       offset_points="0,20.8918"
       sort_points="true"
       interpolator_type="CubicBezierJohan"
       interpolator_beta="0.2"
       start_linecap_type="zerowidth"
       linejoin_type="extrp_arc"
       miter_limit="4"
       scale_width="1"
       end_linecap_type="zerowidth" />
    <inkscape:path-effect
       effect="powerstroke"
       id="path-effect2979"
       is_visible="true"
       lpeversion="1"
       offset_points="0,20.8918"
       sort_points="true"
       interpolator_type="CubicBezierJohan"
       interpolator_beta="0.2"
       start_linecap_type="zerowidth"
       linejoin_type="extrp_arc"
       miter_limit="4"
       scale_width="1"
       end_linecap_type="zerowidth" />
    <inkscape:path-effect
       effect="powerstroke"
       id="path-effect2408"
       is_visible="true"
       lpeversion="1"
       offset_points="0,20.8918"
       sort_points="true"
       interpolator_type="CubicBezierJohan"
       interpolator_beta="0.2"
       start_linecap_type="zerowidth"
       linejoin_type="extrp_arc"
       miter_limit="4"
       scale_width="1"
       end_linecap_type="zerowidth" />
    <inkscape:path-effect
       effect="powerstroke"
       id="path-effect2398"
       is_visible="true"
       lpeversion="1"
       offset_points="0,31.007067"
       sort_points="true"
       interpolator_type="CubicBezierJohan"
       interpolator_beta="0.2"
       start_linecap_type="zerowidth"
       linejoin_type="extrp_arc"
       miter_limit="4"
       scale_width="1"
       end_linecap_type="zerowidth" />
    <inkscape:path-effect
       effect="bspline"
       id="path-effect2396"
       is_visible="true"
       lpeversion="1"
       weight="33.333333"
       steps="2"
       helper_size="0"
       apply_no_weight="true"
       apply_with_weight="true"
       only_selected="false" />
    <inkscape:path-effect
       effect="powerstroke"
       id="path-effect2390"
       is_visible="true"
       lpeversion="1"
       offset_points="0,20.8918"
       sort_points="true"
       interpolator_type="CubicBezierJohan"
       interpolator_beta="0.2"
       start_linecap_type="zerowidth"
       linejoin_type="extrp_arc"
       miter_limit="4"
       scale_width="1"
       end_linecap_type="zerowidth" />
    <filter
       inkscape:collect="always"
       style="color-interpolation-filters:sRGB"
       id="filter3035"
       x="-5.1316542e-05"
       width="1.0001026"
       y="-6.8838742e-05"
       height="1.0001377">
      <feGaussianBlur
         inkscape:collect="always"
         stdDeviation="0.0037772918"
         id="feGaussianBlur3037" />
    </filter>
  </defs>
  <sodipodi:namedview
     id="base"
     pagecolor="#ffffff"
     bordercolor="#666666"
     borderopacity="1.0"
     inkscape:pageopacity="0.0"
     inkscape:pageshadow="2"
     inkscape:zoom="0.7"
     inkscape:cx="156.97701"
     inkscape:cy="563.77685"
     inkscape:document-units="mm"
     inkscape:current-layer="layer1"
     inkscape:document-rotation="0"
     showgrid="false"
     inkscape:window-width="1920"
     inkscape:window-height="1051"
     inkscape:window-x="-9"
     inkscape:window-y="-9"
     inkscape:window-maximized="1" />
  <metadata
     id="metadata2319">
    <rdf:RDF>
      <cc:Work
         rdf:about="">
        <dc:format>image/svg+xml</dc:format>
        <dc:type
           rdf:resource="http://purl.org/dc/dcmitype/StillImage" />
        <dc:title></dc:title>
      </cc:Work>
    </rdf:RDF>
  </metadata>
  <g
     inkscape:label="Layer 1"
     inkscape:groupmode="layer"
     id="layer1">
    <rect
       style="display:none;opacity:1;fill:#00524a;stroke:#1a0030;stroke-width:1.524"
       id="rect2380"
       width="248.70833"
       height="266.8512"
       x="-315.23215"
       y="41.577381" />
    <circle
       id="path2392"
       style="fill:#ffff00;stroke:#ffff00;stroke-width:0.264583"
       cx="49.136906"
       cy="49.892857"
       r="0.57998663" />
    <path
       style="fill:#ffff00;fill-rule:nonzero;stroke:none;stroke-width:2.26188"
       d="m 35.521199,53.158617 c -5.76599,11.928538 -10.523571,26.874585 -13.550093,44.968839 -2.446021,14.623694 -3.745743,31.306444 -3.359591,49.104124 0.339681,15.65582 2.000708,32.4428 5.468284,48.75606 3.155633,14.84573 8.033539,30.33961 15.415442,43.93519 7.097431,13.07165 16.630322,24.58608 28.625443,32.92093 11.631574,8.08223 25.455126,13.03245 40.322946,13.01692 14.59065,-0.0152 28.58164,-4.8286 40.58619,-13.6049 11.73998,-8.58288 21.05483,-20.53008 27.85122,-34.59069 6.67874,-13.81721 11.00768,-29.83027 13.66196,-45.82347 2.71562,-16.36283 3.84831,-33.73606 3.58945,-50.66223 -0.26518,-17.33947 -1.99371,-34.5791 -5.16703,-50.400564 C 185.70377,74.51703 180.74357,58.865024 173.58399,45.678598 165.8745,31.47936 155.58278,20.187321 143.51588,12.694719 130.19442,4.4231354 115.63684,1.2800324 101.70566,2.4632057 86.112913,3.7874966 72.794192,10.323188 62.49569,18.501138 49.820601,28.566318 41.209106,41.391617 35.521199,53.158617 Z m 55.833388,26.98862 c 2.873351,-5.944317 6.28815,-10.367607 9.705803,-13.081536 2.6802,-2.128325 4.72407,-2.711518 5.89324,-2.810815 0.83499,-0.07092 2.04551,0.0039 3.84947,1.124052 1.87735,1.16569 4.96263,3.777035 8.2817,9.890047 3.29819,6.074569 6.59739,15.340256 9.07743,27.705145 2.35032,11.71814 3.74936,25.16248 3.96333,39.15356 0.20891,13.65949 -0.72276,27.2861 -2.7599,39.56078 -2.04512,12.32278 -5.0222,22.16952 -8.31831,28.98863 -3.17838,6.57554 -6.45732,9.93751 -8.61707,11.51646 -2.05221,1.50033 -3.38265,1.65232 -4.05143,1.65302 -0.76181,7.9e-4 -2.40454,-0.21542 -4.87149,-1.92959 -2.65924,-1.84778 -6.154222,-5.39867 -9.513215,-11.58507 -3.646455,-6.71584 -6.880487,-16.06507 -9.255433,-27.23804 -2.54071,-11.95281 -3.858788,-24.81551 -4.127654,-37.20749 -0.304535,-14.03598 0.736721,-26.8401 2.524476,-37.52831 2.220085,-13.272924 5.419601,-22.419405 8.219053,-28.210843 z"
       id="path2394"
       inkscape:path-effect="#path-effect2396;#path-effect2398"
       inkscape:original-d="m 41.717635,29.884756 c 1.822689,77.932254 3.645083,155.862044 5.467326,233.795504 40.941938,0.82794 81.881809,1.65557 122.822119,2.48296 C 168.862,183.00661 167.7166,99.854527 166.57073,16.697119 124.95262,21.093469 83.335744,25.48926 41.717635,29.884756 Z"
       sodipodi:nodetypes="ccccc" />
    <path
       style="fill:#ffff00;stroke:#ffff00;stroke-width:13.8451"
       d="M 109.0068,254.51064 C 51.415416,225.93234 20.121844,133.37361 48.311165,74.987761 57.569351,55.81211 74.508457,40.538542 92.080298,35.52221 c 8.062342,-2.301624 9.754312,-2.31531 16.893492,-0.136637 55.05363,16.800736 85.02692,113.390707 55.92703,180.226727 -9.44644,21.69648 -30.75259,44.50998 -41.56905,44.50998 -1.65898,0 -8.10525,-2.52523 -14.32497,-5.61164 z"
       id="path2400" />
    <ellipse
       style="fill:#ffffff;stroke:#000000;stroke-width:3.124;stroke-miterlimit:4;stroke-dasharray:none;stroke-opacity:1"
       id="path2410"
       cx="107.53421"
       cy="59.909225"
       rx="35.340775"
       ry="34.206848" />
    <ellipse
       style="fill:#000001;fill-opacity:1;stroke:#000000;stroke-width:3.12399;stroke-miterlimit:4;stroke-dasharray:none;stroke-opacity:1"
       id="path2973"
       cx="108.47917"
       cy="57.452381"
       rx="18.520834"
       ry="18.520832" />
    <path
       style="fill:#000001;fill-opacity:1;fill-rule:nonzero;stroke:none;stroke-width:3.12399;stroke-miterlimit:4;stroke-dasharray:none;stroke-opacity:1"
       d="m 35.521198,53.158617 36.672253,-0.619927 0.755954,15.875 -44.979166,-0.755952 z"
       id="path2977"
       inkscape:path-effect="#path-effect2979"
       inkscape:original-d="m 35.521198,53.158617 36.672253,-0.619927 0.755954,15.875 -44.979166,-0.755952 z" />
    <path
       style="fill:#000001;fill-opacity:1;fill-rule:nonzero;stroke:none;stroke-width:3.12399;stroke-miterlimit:4;stroke-dasharray:none;stroke-opacity:1"
       d="m 142.49702,54.806548 36.66369,1.133927 3.77976,14.741072 -40.82142,-1.889881 z"
       id="path2981"
       inkscape:path-effect="#path-effect2983"
       inkscape:original-d="m 142.49702,54.806548 36.66369,1.133927 3.77976,14.741072 -40.82142,-1.889881 z" />
    <path
       style="opacity:1;fill:#0000ff;fill-opacity:1;fill-rule:nonzero;stroke:none;stroke-width:2.524;stroke-miterlimit:4;stroke-dasharray:none;stroke-opacity:1;paint-order:markers fill stroke;filter:url(#filter3035)"
       d="m 18.833309,161.56994 c 1.60214,11.03697 3.958841,27.27202 6.803571,46.86905 a 1.2119989,1.2120015 32.5206 0 0 0.03854,0.17416 c -6.03e-4,-0.002 1.34175,4.46266 2.831188,9.62604 0.690575,2.394 1.405593,4.91768 1.942729,6.92298 0.262132,0.97863 0.481045,1.83067 0.63297,2.47888 0.07525,0.32109 0.131786,0.58251 0.168726,0.77952 0.01837,0.098 0.03035,0.1719 0.03738,0.22433 0.0035,0.0258 0.0051,0.042 0.0058,0.0502 6.13e-4,0.007 -2.69e-4,0.004 -2.69e-4,-0.0195 1e-6,0.19584 0.03785,0.37068 0.06817,0.48746 0.03335,0.12845 0.07703,0.2583 0.123615,0.38252 0.09268,0.24714 0.219413,0.53146 0.366997,0.83756 0.293846,0.60946 0.705189,1.37672 1.191461,2.2412 0.9598,1.70631 2.236548,3.83541 3.531426,5.94558 2.519827,4.10638 5.113788,8.14426 5.116186,8.14799 a 1.2120011,1.2119992 7.7676762 0 0 0.114998,0.15133 c 4.108532,4.60653 8.303104,9.30954 12.473213,13.98511 a 1.2128247,1.2113584 0.25265148 0 0 0.09093,0.0916 c 6.77918,6.13963 13.518107,12.24281 20.032734,18.14285 a 1.2119323,1.2120671 75.692206 0 0 0.414753,0.24616 c 8.734625,3.04388 17.145454,5.97492 24.946425,8.69344 a 1.212,1.212 51.193752 0 0 0.537238,0.0596 c 10.2831,-1.18196 21.3701,-2.45633 32.88392,-3.77976 a 1.212052,1.2119454 23.640246 0 0 0.5767,-0.22551 c 9.58757,-7.00629 19.50523,-14.25382 29.48214,-21.54463 a 1.2119821,1.2120783 85.498776 0 0 0.36327,-0.42533 c 7.45565,-14.5322 14.95504,-29.14964 22.3006,-43.46725 a 1.2119984,1.2120017 64.645484 0 0 0.10657,-0.29854 c 2.99262,-13.92217 5.91974,-27.53965 8.69345,-40.44345 a 1.212,1.212 52.144131 0 0 0.0262,-0.20901 c 0.27272,-7.22716 0.52839,-14.00236 0.75595,-20.03274 a 1.2120001,1.212 0.45920456 0 0 -1.23742,-1.25741 c -72.8567,1.5804 -133.214431,2.88968 -174.247025,3.77976 z m 1.225713,1.0376 c 40.790942,-0.88483 100.680068,-2.18394 172.961098,-3.75186 -0.17795,4.71568 -0.43223,11.45424 -0.70346,18.64178 -2.74112,12.75216 -5.65671,26.31601 -8.63764,40.1838 -7.22949,14.09138 -14.684,28.62134 -22.09642,43.06928 -9.6552,7.05572 -19.48426,14.2385 -28.99152,21.18612 -11.09296,1.27505 -22.08482,2.53848 -32.29036,3.71153 -7.469965,-2.60317 -15.800826,-5.50634 -24.452257,-8.52123 -6.316893,-5.72096 -13.039423,-11.80929 -19.802447,-17.9343 -4.1055,-4.60313 -8.278225,-9.28164 -12.366366,-13.86532 -0.374487,-0.58413 -2.742265,-4.28402 -5.038005,-8.02522 -1.289776,-2.10186 -2.547796,-4.20048 -3.484756,-5.86618 -0.476867,-0.84777 -0.859635,-1.56408 -1.120695,-2.10554 -0.132431,-0.27468 -0.224467,-0.48573 -0.2808,-0.63595 -0.0283,-0.0755 -0.04185,-0.12047 -0.04706,-0.14052 -0.0041,-0.0159 0.0096,-0.001 0.0096,0.12166 0,-0.0681 -0.0039,-0.13206 -0.0085,-0.18639 -0.0048,-0.0559 -0.01124,-0.11182 -0.0185,-0.16606 -0.01447,-0.10807 -0.03437,-0.22623 -0.05744,-0.34928 -0.04642,-0.24761 -0.112015,-0.54824 -0.191163,-0.88594 -0.160555,-0.68504 -0.387026,-1.56534 -0.651557,-2.55292 -0.543267,-2.0282 -1.263347,-4.56939 -1.955151,-6.96765 -1.373878,-4.76277 -2.620376,-8.92407 -2.812779,-9.56524 -2.838969,-19.55733 -5.190978,-35.76007 -6.790702,-46.78039 z"
       id="path2989"
       inkscape:path-effect="#path-effect2991"
       inkscape:original-d="m 20.032738,161.39583 6.803571,46.86905 c 0,0 5.669642,18.89881 5.669642,20.41071 0,1.51191 10.205358,17.38691 10.205358,17.38691 l 12.473214,13.98512 20.032737,18.14286 24.94643,8.69344 32.88393,-3.77976 29.48214,-21.54464 22.3006,-43.46726 8.69345,-40.44345 0.75595,-20.03274 z" />
  </g>
</svg>
